<svg width="192" height="176" viewBox="0 0 192 176" fill="none" xmlns="http://www.w3.org/2000/svg">
<path d="M2.11886 76.975C13.869 96.3474 25.6191 115.72 37.3911 135.092L55.1692 164.38L59.1223 170.889C59.9523 172.265 60.7822 174.208 62.3765 174.864C64.1675 175.606 65.6308 174.536 67.0722 173.531C69.431 171.893 71.7461 170.233 74.083 168.574C83.1468 162.174 92.1887 155.753 101.231 149.332C105.752 146.122 110.273 142.889 114.772 139.679C118.834 136.774 123.464 134.109 127.155 130.746C130.65 127.557 128.509 124.172 126.238 120.962C123.137 116.593 119.992 112.269 116.825 107.945C110.622 99.4924 104.288 91.1057 97.8672 82.8064C82.9502 63.5431 67.4435 44.7604 51.3908 26.4581C50.9759 25.9995 50.0367 25.8247 49.5125 26.2179C38.4613 34.3425 27.3882 42.4453 16.337 50.5699C12.2747 53.5402 6.92375 56.3795 5.65701 61.643C5.0018 64.3512 5.04547 67.256 4.84891 70.0079C4.60867 73.4805 4.39026 76.9531 4.15002 80.4257C4.01898 82.4132 7.09848 82.3914 7.22952 80.4257C7.42609 77.4773 7.62264 74.5288 7.81921 71.5804C8.01577 68.6319 7.92841 65.6834 8.5181 62.8879C9.19515 59.721 11.4447 57.9738 13.9564 56.1392C16.468 54.3046 18.9141 52.5137 21.3821 50.7009C31.2758 43.4499 41.1695 36.1771 51.0632 28.9261L49.1849 28.6858C75.6337 58.8474 100.575 90.3194 123.857 122.993C124.403 123.757 125.517 124.805 125.692 125.723C126.085 127.732 125.08 128.518 123.683 129.567C121.52 131.161 119.314 132.69 117.13 134.262C112.915 137.276 108.678 140.29 104.463 143.304C96.1636 149.223 87.8425 155.12 79.5213 161.017C75.2842 164.009 71.0472 167.001 66.8101 169.993C66.2423 170.386 64.7353 171.915 63.9709 171.959C62.9662 172.024 62.5076 170.605 62.0489 169.84L57.8119 162.873L41.4534 135.9C29.2228 115.742 17.014 95.6048 4.78339 75.4461C3.75689 73.7426 1.09236 75.2932 2.11886 76.9968V76.975Z" fill="#5F6A7A" fill-opacity="0.34"/>
<path d="M7.51292 60.1371C15.3973 65.8156 22.5173 72.4987 28.7855 79.9245L29.8775 77.2818C20.2677 76.5174 10.6143 77.0197 1.11368 78.7233C-0.830111 79.0727 -0.0220057 82.043 1.94363 81.6936C11.1603 80.0555 20.5517 79.6187 29.8775 80.3613C31.3408 80.4705 31.7558 78.6578 30.9695 77.7186C24.5266 70.0745 17.1664 63.3039 9.06359 57.4507C7.4474 56.2932 5.89673 58.9577 7.51292 60.1153V60.1371Z" fill="#5F6A7A" fill-opacity="0.34"/>
<path d="M33.5686 65.2916C38.7447 62.1684 43.9209 59.0671 49.1189 55.9439C50.8225 54.9174 49.2718 52.2529 47.5683 53.2794C42.3921 56.4025 37.2159 59.5039 32.0179 62.627C30.3143 63.6535 31.865 66.3181 33.5686 65.2916Z" fill="#5F6A7A" fill-opacity="0.34"/>
<path d="M34.7487 93.1823C44.6205 86.4555 54.4924 79.7068 64.3642 72.9799C66.0023 71.8661 64.4516 69.1797 62.8136 70.3154C52.9417 77.0422 43.0699 83.7909 33.198 90.5178C31.56 91.6316 33.1106 94.318 34.7487 93.1823Z" fill="#5F6A7A" fill-opacity="0.34"/>
<path d="M48.0711 96.2159C54.0554 92.9835 59.6028 88.943 64.5388 84.2474C65.9802 82.8714 63.7962 80.6874 62.3547 82.0633C57.6154 86.5843 52.2863 90.45 46.5204 93.5514C44.7732 94.4905 46.3239 97.1551 48.0711 96.2159Z" fill="#5F6A7A" fill-opacity="0.34"/>
<path d="M55.3653 123.779C65.3027 115.108 76.2884 107.748 88.0604 101.785C89.8294 100.89 88.2788 98.2255 86.5097 99.121C74.5193 105.193 63.337 112.749 53.2031 121.595C51.6961 122.905 53.902 125.089 55.3871 123.779H55.3653Z" fill="#5F6A7A" fill-opacity="0.34"/>
<path d="M70.7616 124.349C76.3746 120.024 81.9876 115.722 87.6006 111.397C88.2558 110.895 88.6053 110.065 88.1466 109.279C87.7753 108.624 86.7051 108.209 86.0281 108.733C80.4151 113.057 74.8021 117.36 69.1892 121.684C68.5339 122.186 68.1845 123.016 68.6431 123.803C69.0144 124.458 70.0846 124.873 70.7616 124.349Z" fill="#5F6A7A" fill-opacity="0.34"/>
<path d="M74.8033 131.706C80.5036 127.557 86.1821 123.385 91.8825 119.235C92.5595 118.755 92.8871 117.903 92.4285 117.117C92.0354 116.462 90.987 116.069 90.31 116.571C84.6096 120.721 78.9311 124.892 73.2308 129.042C72.5537 129.522 72.2261 130.374 72.6848 131.16C73.0779 131.816 74.1262 132.209 74.8033 131.706Z" fill="#5F6A7A" fill-opacity="0.34"/>
<path d="M121.982 16.8007C112.613 29.5338 103.922 42.7536 95.95 56.4034C95.3796 57.384 96.7979 58.4498 97.3683 57.4693C105.34 43.8194 114.032 30.5996 123.401 17.8666C124.081 16.9464 122.663 15.8806 121.982 16.8007Z" fill="#5F6A7A" fill-opacity="0.34"/>
<path d="M133.516 23.7038C125.412 36.1559 117.321 48.6063 109.219 61.0709C108.7 61.8794 109.668 62.9838 110.483 62.298C110.936 61.917 111.389 61.536 111.831 61.1692C112.702 60.4373 111.606 59.0471 110.734 59.779C110.281 60.16 109.828 60.541 109.386 60.9078L110.65 62.135C118.754 49.6828 126.845 37.2324 134.947 24.7678C135.572 23.8175 134.152 22.7392 133.529 23.702L133.516 23.7038Z" fill="#5F6A7A" fill-opacity="0.34"/>
<path d="M128.104 19.9481C119.923 34.0839 111.075 47.8074 101.581 61.0903C100.915 62.0211 102.333 63.0869 102.999 62.1561C112.493 48.8732 121.339 35.1373 129.523 21.0139C130.093 20.0334 128.673 18.9551 128.104 19.9481Z" fill="#5F6A7A" fill-opacity="0.34"/>
<path d="M115.068 13.0801C118.8 15.7183 122.658 18.1738 126.63 20.4485C128.533 21.5343 130.455 22.5793 132.409 23.5818C133.379 24.0777 134.359 24.5595 135.34 25.0412C136.129 25.4234 137.041 25.9529 137.937 25.5723C138.606 25.2873 138.914 24.5975 139.166 23.9661C139.547 23.0759 139.975 22.0774 140.116 21.1071C140.42 19.0494 138.308 18.0947 136.865 17.1211C133.177 14.616 129.297 12.3662 125.305 10.3985C123.821 9.67144 120.918 8.05599 119.526 9.58398C118.133 11.112 117.252 13.1124 116.923 15.1736C116.741 16.3018 118.496 16.5217 118.679 15.4059C118.99 13.4866 119.843 11.8197 121.177 10.4141L120.593 10.763C122.539 10.7276 124.42 11.9305 126.101 12.7943C127.988 13.7684 129.832 14.7991 131.646 15.8849C133.46 16.9706 135.136 18.0633 136.824 19.2429C137.146 19.4632 137.545 19.6853 137.836 19.9482C138.437 20.5218 138.413 20.8039 138.179 21.5595C138.022 22.0632 137.626 23.7411 137.153 23.8844C136.897 23.9587 136.248 23.4932 136.019 23.399C135.53 23.1643 135.039 22.9172 134.549 22.6826C133.691 22.2595 132.843 21.8223 131.996 21.385C130.134 20.4075 128.279 19.3909 126.469 18.33C122.931 16.2598 119.499 14.0353 116.149 11.6849C115.22 11.0311 114.153 12.437 115.084 13.1032L115.068 13.0801Z" fill="#5F6A7A" fill-opacity="0.34"/>
<path d="M126.975 10.2884C127.7 8.96916 128.466 7.66944 129.285 6.38751C129.658 5.80239 130.033 5.22969 130.422 4.66765C130.736 4.2049 131.053 3.57716 131.513 3.24583C132.294 2.67884 133.966 3.56928 134.78 3.85924C135.796 4.23455 136.805 4.64887 137.724 5.22812C139.731 6.51451 140.893 8.45299 140.591 10.878C140.26 13.5477 138.519 15.746 136.91 17.799C136.201 18.6978 137.62 19.7636 138.328 18.8648C141.115 15.289 144.253 10.3456 141.122 5.9623C139.95 4.30413 138.079 3.26449 136.236 2.51227C134.393 1.76006 131.801 0.455356 130.144 2.08423C129.155 3.06084 128.421 4.40673 127.687 5.5752C126.861 6.89616 126.075 8.23667 125.318 9.59849C124.764 10.6021 126.415 11.2548 126.959 10.2654L126.975 10.2884Z" fill="#5F6A7A" fill-opacity="0.34"/>
<path d="M95.9679 58.9464C95.6026 58.7829 95.5156 58.7952 95.707 58.9835L95.7832 59.1627C95.893 59.4006 95.9317 59.6738 95.9918 59.9187L96.4568 61.6773L97.3548 65.0597C97.5387 65.7305 98.1896 66.031 98.779 65.6306C99.7855 64.9556 100.859 64.3977 101.999 63.9446L100.761 63.2586C100.844 64.1972 100.928 65.1483 101.01 66.0869C101.081 66.8498 101.202 67.6181 101.876 68.0801C103.069 68.8991 104.53 67.9442 105.429 67.1325C107.844 64.9526 109.807 62.3553 111.284 59.4595C111.812 58.447 110.159 57.7819 109.643 58.7927C108.532 60.9649 107.083 62.9825 105.38 64.732C104.982 65.1432 104.568 65.5314 104.14 65.9089C103.938 66.0896 103.224 66.7738 102.898 66.6173C102.679 66.5089 102.728 65.5137 102.707 65.2759C102.639 64.5254 102.581 63.7607 102.512 63.0101C102.467 62.4211 101.789 62.1117 101.275 62.3241C100.004 62.8339 98.804 63.4856 97.6714 64.2545L99.0955 64.8254L97.7183 59.6737C97.4248 58.5877 96.8058 56.5468 95.2296 57.3153C94.2108 57.8146 94.9118 59.4511 95.9413 58.9376L95.9679 58.9464Z" fill="#5F6A7A" fill-opacity="0.34"/>
<path d="M93.726 58.8596C92.8613 65.1783 92.2415 71.5256 91.8771 77.8874C91.8464 78.4746 92.4808 79.1955 93.111 78.8146C98.9051 75.357 104.148 71.1413 108.773 66.2277C109.554 65.3946 108.125 64.343 107.354 65.1619C102.961 69.8273 97.9112 73.8888 92.3993 77.1924L93.6333 78.1197C93.9977 71.7579 94.6175 65.4106 95.4822 59.0919C95.6376 57.9548 93.8832 57.7349 93.726 58.8596Z" fill="#5F6A7A" fill-opacity="0.34"/>
<path d="M93.521 74.2962C94.3721 74.7583 95.2358 75.2186 96.0869 75.6807C96.2784 75.7802 96.5925 75.761 96.77 75.6724C96.9475 75.5839 97.1623 75.4014 97.2352 75.201C97.3188 74.9864 97.3332 74.7309 97.227 74.5179C97.1208 74.3049 96.9612 74.1628 96.7555 74.0526C95.9044 73.5905 95.0408 73.1302 94.1896 72.6681C93.9981 72.5686 93.6841 72.5878 93.5066 72.6764C93.3291 72.7649 93.1142 72.9474 93.0413 73.1478C92.9577 73.3624 92.9433 73.6179 93.0496 73.8309C93.1558 74.0439 93.3153 74.186 93.521 74.2962Z" fill="#5F6A7A" fill-opacity="0.34"/>
<path d="M75.5993 31.7236C78.9724 42.4375 83.2527 52.8504 88.3912 62.8459C88.8941 63.8336 90.5128 63.2027 90.0003 62.2073C84.8618 52.2119 80.5815 41.7989 77.2084 31.085C76.8715 30.0249 75.2624 30.6635 75.5993 31.7236Z" fill="#5F6A7A" fill-opacity="0.34"/>
<path d="M80.4986 33.1873C83.1595 38.6938 85.8107 44.1926 88.4716 49.699C88.9497 50.6985 90.5684 50.0676 90.0807 49.0605C87.4198 43.5541 84.7686 38.0552 82.1077 32.5488C81.6296 31.5493 80.0109 32.1803 80.4986 33.1873Z" fill="#5F6A7A" fill-opacity="0.34"/>
<path d="M87.2051 29.5348C89.0071 34.2884 90.8186 39.0495 92.613 43.8127C93.0091 44.8569 94.6182 44.2184 94.2221 43.1742C92.4202 38.4206 90.6086 33.6595 88.8142 28.8963C88.4181 27.852 86.8091 28.4906 87.2051 29.5348Z" fill="#5F6A7A" fill-opacity="0.34"/>
<path d="M188.946 113.292C188.269 112.599 188.276 111.49 188.965 110.807C189.655 110.125 190.767 110.137 191.45 110.827C192.127 111.52 192.12 112.629 191.431 113.312C190.737 113.989 189.629 113.982 188.946 113.292Z" fill="#5F6A7A" fill-opacity="0.34"/>
<path d="M179.634 122.445C178.957 121.752 178.964 120.643 179.654 119.96C180.347 119.283 181.455 119.29 182.138 119.98C182.821 120.669 182.809 121.781 182.119 122.464C181.429 123.147 180.317 123.134 179.634 122.445Z" fill="#5F6A7A" fill-opacity="0.34"/>
<path d="M170.334 131.599C169.656 130.906 169.663 129.798 170.353 129.115C171.043 128.432 172.155 128.445 172.838 129.134C173.515 129.827 173.508 130.936 172.818 131.619C172.125 132.296 171.016 132.289 170.334 131.599Z" fill="#5F6A7A" fill-opacity="0.34"/>
<path d="M186.115 91.8034C185.438 91.1102 185.444 90.0016 186.134 89.3187C186.827 88.6416 187.936 88.6485 188.619 89.3382C189.296 90.0313 189.289 91.14 188.599 91.8229C187.906 92.5 186.798 92.4931 186.115 91.8034Z" fill="#5F6A7A" fill-opacity="0.34"/>
<path d="M176.81 100.952C176.132 100.259 176.139 99.15 176.829 98.467C177.519 97.7841 178.631 97.7969 179.314 98.4865C179.997 99.1761 179.984 100.288 179.294 100.971C178.601 101.648 177.493 101.641 176.81 100.952Z" fill="#5F6A7A" fill-opacity="0.34"/>
<path d="M167.502 110.11C166.825 109.417 166.832 108.309 167.522 107.626C168.215 106.949 169.324 106.956 170.007 107.645C170.689 108.335 170.677 109.447 169.987 110.13C169.294 110.807 168.185 110.8 167.502 110.11Z" fill="#5F6A7A" fill-opacity="0.34"/>
<path d="M158.197 119.259C157.52 118.566 157.526 117.457 158.216 116.774C158.909 116.097 160.018 116.104 160.701 116.794C161.384 117.483 161.371 118.595 160.681 119.278C159.988 119.956 158.88 119.949 158.197 119.259Z" fill="#5F6A7A" fill-opacity="0.34"/>
<path d="M192.588 61.1654C191.911 60.4722 191.918 59.3636 192.608 58.6807C193.301 58.0036 194.41 58.0105 195.092 58.7001C195.77 59.3933 195.763 60.5019 195.073 61.1849C194.38 61.862 193.271 61.855 192.588 61.1654Z" fill="#5F6A7A" fill-opacity="0.34"/>
<path d="M183.284 70.3144C182.607 69.6213 182.614 68.5126 183.303 67.8297C183.993 67.1467 185.105 67.1595 185.788 67.8492C186.471 68.5388 186.458 69.651 185.768 70.3339C185.075 71.011 183.967 71.0041 183.284 70.3144Z" fill="#5F6A7A" fill-opacity="0.34"/>
<path d="M173.982 79.4686C173.305 78.7754 173.312 77.6668 174.001 76.9838C174.694 76.3067 175.803 76.3137 176.486 77.0033C177.169 77.6929 177.156 78.8051 176.467 79.4881C175.773 80.1651 174.665 80.1582 173.982 79.4686Z" fill="#5F6A7A" fill-opacity="0.34"/>
<path d="M164.671 88.6208C163.994 87.9276 164.001 86.819 164.691 86.1361C165.384 85.459 166.493 85.4659 167.175 86.1555C167.853 86.8487 167.846 87.9574 167.156 88.6403C166.463 89.3174 165.354 89.3105 164.671 88.6208Z" fill="#5F6A7A" fill-opacity="0.34"/>
<path d="M155.369 97.7759C154.691 97.0827 154.698 95.9741 155.388 95.2911C156.081 94.614 157.19 94.621 157.873 95.3106C158.55 96.0038 158.543 97.1124 157.853 97.7954C157.16 98.4725 156.051 98.4655 155.369 97.7759Z" fill="#5F6A7A" fill-opacity="0.34"/>
<path d="M146.064 106.924C145.381 106.235 145.394 105.122 146.083 104.44C146.776 103.762 147.885 103.769 148.568 104.459C149.245 105.152 149.238 106.261 148.548 106.944C147.855 107.621 146.747 107.614 146.064 106.924Z" fill="#5F6A7A" fill-opacity="0.34"/>
<path d="M180.452 48.8254C179.775 48.1322 179.782 47.0236 180.471 46.3407C181.161 45.6577 182.273 45.6705 182.956 46.3602C183.633 47.0533 183.626 48.162 182.936 48.8449C182.243 49.522 181.135 49.5151 180.452 48.8254Z" fill="#5F6A7A" fill-opacity="0.34"/>
<path d="M171.15 57.9795C170.473 57.2863 170.48 56.1777 171.169 55.4947C171.862 54.8176 172.971 54.8246 173.654 55.5142C174.331 56.2074 174.324 57.316 173.635 57.999C172.941 58.6761 171.833 58.6691 171.15 57.9795Z" fill="#5F6A7A" fill-opacity="0.34"/>
<path d="M161.845 67.1284C161.168 66.4352 161.175 65.3265 161.865 64.6436C162.558 63.9665 163.666 63.9734 164.349 64.6631C165.026 65.3563 165.019 66.4649 164.33 67.1478C163.64 67.8308 162.528 67.818 161.845 67.1284Z" fill="#5F6A7A" fill-opacity="0.34"/>
<path d="M152.537 76.2868C151.86 75.5937 151.867 74.485 152.557 73.8021C153.25 73.125 154.359 73.1319 155.042 73.8216C155.719 74.5147 155.712 75.6234 155.022 76.3063C154.329 76.9834 153.22 76.9765 152.537 76.2868Z" fill="#5F6A7A" fill-opacity="0.34"/>
<path d="M143.232 85.4354C142.555 84.7422 142.562 83.6336 143.251 82.9506C143.944 82.2736 145.053 82.2805 145.736 82.9701C146.413 83.6633 146.406 84.7719 145.717 85.4549C145.023 86.132 143.915 86.125 143.232 85.4354Z" fill="#5F6A7A" fill-opacity="0.34"/>
<path d="M133.93 94.5898C133.253 93.8966 133.26 92.788 133.95 92.105C134.639 91.4221 135.751 91.4349 136.434 92.1245C137.112 92.8177 137.105 93.9263 136.415 94.6093C135.722 95.2864 134.613 95.2794 133.93 94.5898Z" fill="#5F6A7A" fill-opacity="0.34"/>
</svg>
