<svg width="182" height="178" viewBox="0 0 182 178" fill="none" xmlns="http://www.w3.org/2000/svg">
<path d="M149.535 9.48933C140.058 14.3596 132.368 22.0621 126.142 30.6103C122.945 35.0001 120.008 39.6448 117.521 44.4782C115.78 47.867 114.11 52.2367 115.744 55.9823C117.505 60.0177 122.405 61.2785 126.399 60.4648C130.585 59.6086 134.293 57.0195 137.478 54.281C144.855 47.944 150.917 39.8965 154.567 30.854C156.653 25.6995 158.002 20.123 158.187 14.5503C158.263 12.225 158.091 9.5053 156.307 7.78252C154.522 6.05975 151.717 6.17637 149.368 6.47509C148.848 6.54114 148.945 7.35068 149.471 7.28978C151.791 6.98891 154.573 6.79115 156.174 8.86124C157.638 10.7508 157.463 13.5745 157.304 15.8144C156.955 20.526 155.883 25.1675 154.189 29.5822C150.979 37.975 145.66 45.5441 139.134 51.6888C136.118 54.5259 132.803 57.281 128.922 58.8422C125.041 60.4034 120.144 60.5281 117.347 57.0743C114.55 53.6205 116.286 48.7805 118.01 45.3039C120.243 40.7848 122.987 36.4586 125.89 32.3521C132.189 23.4346 140.032 15.2868 149.83 10.2497C150.291 10.0111 149.996 9.25066 149.523 9.49082L149.535 9.48933Z" fill="white" fill-opacity="0.6"/>
<path d="M117.458 14.1128C118.553 23.572 121.639 32.7961 126.654 40.9051C129.024 44.7311 131.827 48.286 135.046 51.4282C138.265 54.5704 141.975 57.5602 146.108 59.3024C150.241 61.0446 154.822 60.6961 157.488 56.9917C160.155 53.2872 159.642 48.2173 158.499 44.0853C155.799 34.3622 149.196 26.1192 141.891 19.3872C137.57 15.4132 132.847 11.5744 127.351 9.35162C125.031 8.41684 122.353 7.54556 119.822 7.88525C117.292 8.22495 115.311 9.91651 114.572 12.3141C114.42 12.8134 115.174 13.1314 115.332 12.6255C117.114 6.87377 123.822 8.67256 127.895 10.4643C132.439 12.4721 136.41 15.5788 140.103 18.8646C147.129 25.1042 153.363 32.4762 156.735 41.3461C158.286 45.4321 159.512 50.4054 157.844 54.6488C157.02 56.7572 155.401 58.4089 153.243 59.1331C151.086 59.8573 148.582 59.4618 146.432 58.5532C142.603 56.9285 139.125 54.1611 136.119 51.3219C133.112 48.4826 130.464 45.25 128.194 41.7891C122.73 33.4913 119.412 23.8647 118.28 14.0144C118.219 13.4882 117.411 13.5969 117.465 14.1179L117.458 14.1128Z" fill="white" fill-opacity="0.6"/>
<path d="M106.927 31.4517C118.276 28.1372 129.703 25.0107 141.333 22.8302C146.736 21.8194 152.194 20.9155 157.685 20.6434C160.54 20.5023 163.408 20.5516 166.254 20.9036C168.625 21.1961 171.274 21.5973 173.081 23.3052C175.113 25.2305 174.906 28.1783 173.438 30.3626C172.046 32.4353 169.893 33.8128 167.736 34.9629C163.024 37.4877 157.762 38.9485 152.644 40.403C142.737 43.2163 132.46 45.2847 122.116 45.0341C119.282 44.9684 116.444 44.7293 113.64 44.282C110.835 43.8347 107.913 43.3603 105.561 41.7516C104.379 40.9422 103.423 39.8399 102.903 38.4902C102.607 37.718 102.392 36.8275 102.618 36.0128C102.912 34.9316 103.89 34.4534 104.821 33.9931C107.693 32.5661 110.704 31.4275 113.783 30.5441C114.287 30.402 113.98 29.6431 113.476 29.7852C110.397 30.6686 107.393 31.8124 104.514 33.2342C103.476 33.7501 102.373 34.3223 101.924 35.4651C101.525 36.4758 101.733 37.6372 102.088 38.6359C103.901 43.7444 110.228 44.6738 114.878 45.2944C125.956 46.7835 137.197 45.2165 147.955 42.4989C153.471 41.1077 159.074 39.5916 164.349 37.4391C168.557 35.7163 174.334 33.0262 175.3 28.0262C175.723 25.8308 174.88 23.6344 173.112 22.2755C171.095 20.7141 168.443 20.3314 165.99 20.0494C160.17 19.3855 154.295 19.9345 148.525 20.7881C134.299 22.8966 120.393 26.6682 106.614 30.6876C106.105 30.8363 106.417 31.5885 106.921 31.4465L106.927 31.4517Z" fill="white" fill-opacity="0.6"/>
<path d="M138.218 31.1687C136.862 31.2572 135.912 32.5657 135.693 33.8114C135.473 35.0572 136.032 36.5758 137.17 37.2651C139.926 38.9423 142.812 34.4601 140.576 32.3987C139.374 31.2977 137.59 30.9907 136.069 31.484C135.568 31.6497 135.879 32.4019 136.375 32.2429C137.412 31.9071 138.57 32.0479 139.5 32.6195C140.021 32.9372 140.456 33.3379 140.537 33.9755C140.615 34.5474 140.465 35.1544 140.179 35.6466C139.733 36.4293 138.797 37.0882 137.88 36.7188C136.963 36.3495 136.441 35.3061 136.458 34.362C136.47 33.3167 137.179 32.0567 138.327 31.9768C138.856 31.9395 138.747 31.1315 138.223 31.1621L138.218 31.1687Z" fill="white" fill-opacity="0.6"/>
<path d="M114.996 11.8229C113.994 12.6222 113.655 14.1051 113.952 15.315C114.104 15.9436 114.425 16.5327 114.954 16.9213C115.484 17.3099 116.138 17.4547 116.766 17.3449C118.157 17.1021 118.96 15.8182 118.98 14.4718C118.986 13.1992 118.366 11.7183 117.023 11.3912C115.537 11.0282 114.218 12.2637 113.881 13.6204C113.83 13.8368 114.032 14.057 114.232 14.0736C114.471 14.1093 114.635 13.9384 114.686 13.722C114.897 12.8853 115.684 12.0894 116.597 12.1472C117.576 12.2027 118.065 13.2624 118.156 14.1207C118.249 15.0868 117.863 16.1616 116.872 16.4796C115.974 16.7738 115.132 16.2389 114.825 15.384C114.489 14.4429 114.675 13.1175 115.493 12.4736C115.907 12.145 115.415 11.4876 115.001 11.8162L114.996 11.8229Z" fill="white" fill-opacity="0.6"/>
<path d="M108.831 42.0371C106.849 43.3869 106.894 46.9026 109.099 48.014C110.105 48.516 111.398 48.1657 111.997 47.2137C112.596 46.2617 112.588 44.7869 111.704 44.0174C111.272 43.6404 110.647 43.5819 110.127 43.786C109.539 44.0227 109.146 44.5586 109.05 45.1767C108.966 45.6972 109.778 45.804 109.862 45.2835C109.951 44.7142 110.67 44.1849 111.19 44.6407C111.749 45.1274 111.704 46.189 111.322 46.7656C110.899 47.4072 110.055 47.6045 109.39 47.2391C108.668 46.839 108.282 45.9762 108.212 45.1873C108.14 44.2485 108.538 43.2261 109.328 42.6878C109.763 42.3865 109.273 41.7409 108.836 42.0304L108.831 42.0371Z" fill="white" fill-opacity="0.6"/>
<path d="M166.398 34.1606C164.862 34.4938 164.047 35.9593 163.606 37.3531C163.344 38.1722 163.183 39.0266 163.106 39.8823C163.034 40.6353 163.018 41.4532 163.313 42.1716C163.608 42.8899 164.182 43.3449 164.929 43.3699C165.737 43.3992 166.421 42.9283 166.935 42.347C167.5 41.6992 167.95 40.8981 168.338 40.123C168.687 39.4247 168.953 38.641 168.871 37.8536C168.775 36.9599 168.215 36.1853 167.418 35.7706C166.55 35.3111 165.532 35.4166 164.592 35.53C164.073 35.5961 164.17 36.4056 164.696 36.3447C165.937 36.1989 167.599 36.1555 168.007 37.6635C168.328 38.8704 167.424 40.2032 166.796 41.1648C166.429 41.7214 165.975 42.349 165.289 42.5203C164.708 42.6662 164.253 42.346 164.047 41.8143C163.823 41.2249 163.857 40.5487 163.922 39.9285C163.987 39.3084 164.095 38.6468 164.261 38.0197C164.575 36.858 165.176 35.2579 166.507 34.9687C167.02 34.8554 166.923 34.0459 166.403 34.154L166.398 34.1606Z" fill="white" fill-opacity="0.6"/>
<path d="M151.228 6.42487C150.476 5.93853 149.587 6.0275 148.863 6.50955C147.994 7.08196 147.498 8.13487 147.156 9.0841C146.667 10.4721 146.364 12.8983 148.01 13.6728C148.775 14.0314 149.646 13.7048 150.276 13.2348C151.076 12.6411 151.687 11.7836 152.12 10.8947C152.553 10.0058 152.931 8.96788 152.802 8.00635C152.664 6.96217 151.77 6.49385 150.787 6.49887C148.846 6.51771 147.335 8.22157 146.156 9.56526C145.81 9.9572 146.455 10.457 146.801 10.0651C147.661 9.09189 148.621 8.00407 149.854 7.51135C150.379 7.30061 151.2 7.1483 151.692 7.52963C152.304 8.00371 151.925 9.12575 151.724 9.71521C151.466 10.4738 151.083 11.1884 150.574 11.8051C150.169 12.3005 149.636 12.8242 148.989 12.9725C147.455 13.3175 147.525 11.0409 147.704 10.1363C147.872 9.28706 148.226 8.39021 148.763 7.70999C149.201 7.14439 150.021 6.60824 150.721 7.06516C151.159 7.35138 151.659 6.70593 151.221 6.41971L151.228 6.42487Z" fill="white" fill-opacity="0.6"/>
<path d="M129.003 55.3709C127.707 56.7835 127.244 58.852 127.464 60.7257C127.684 62.5994 128.638 64.5837 130.528 65.0573C132.802 65.6261 133.953 62.7383 134.374 60.9991C134.823 59.1542 134.525 56.3366 132.437 55.5822C131.443 55.2167 130.334 55.5076 129.515 56.1397C128.416 56.9813 127.787 58.315 127.395 59.6186C127.243 60.1179 127.997 60.436 128.155 59.93C128.628 58.3701 129.7 56.0921 131.676 56.2489C133.652 56.4056 133.921 58.9029 133.676 60.3738C133.525 61.3109 133.161 62.221 132.702 63.0472C132.297 63.7766 131.697 64.4828 130.784 64.2869C129.256 63.9654 128.494 62.1725 128.301 60.7992C128.058 59.0784 128.465 57.179 129.655 55.8759C130.008 55.4891 129.362 54.9893 129.009 55.3761L129.003 55.3709Z" fill="white" fill-opacity="0.6"/>
<path d="M135.069 106.171C137.036 110.108 139.003 114.046 140.975 117.979C141.251 118.537 142.153 118.168 141.872 117.615C139.905 113.677 137.938 109.739 135.966 105.806C135.69 105.248 134.788 105.617 135.069 106.171Z" fill="white" fill-opacity="0.6"/>
<path d="M141.57 118.445C150.903 123.421 160.236 128.396 169.57 133.371L169.933 132.475C160.894 129.984 151.862 127.489 142.824 124.999C142.229 124.835 141.856 125.731 142.461 125.895C151.499 128.386 160.532 130.881 169.57 133.371C170.174 133.536 170.487 132.765 169.933 132.475C160.599 127.499 151.266 122.524 141.933 117.549C141.384 117.254 141.025 118.156 141.57 118.445Z" fill="white" fill-opacity="0.6"/>
<path d="M135.978 105.206C147.458 113.278 158.828 121.521 170.065 129.937C173.267 132.337 176.463 134.75 179.643 137.176C180.137 137.556 180.724 136.781 180.22 136.399C169.059 127.89 157.765 119.544 146.351 111.379C143.096 109.046 139.833 106.736 136.555 104.43C136.044 104.072 135.462 104.843 135.978 105.206Z" fill="white" fill-opacity="0.6"/>
<path d="M141.908 125.986C145.029 129.758 148.024 133.636 150.88 137.613C151.246 138.118 152.01 137.527 151.644 137.021C148.788 133.044 145.793 129.166 142.672 125.394C142.273 124.914 141.51 125.506 141.908 125.986Z" fill="white" fill-opacity="0.6"/>
<path d="M180.457 137.231C170.067 137.538 159.665 137.248 149.308 136.378C148.689 136.329 148.562 137.285 149.185 137.34C159.625 138.215 170.111 138.501 180.579 138.194C181.206 138.176 181.069 137.216 180.451 137.235L180.457 137.231Z" fill="white" fill-opacity="0.6"/>
<path d="M139.83 117.228C136.557 120.31 133.098 123.198 129.485 125.875C128.984 126.246 129.576 127.01 130.077 126.639C133.694 123.967 137.143 121.078 140.422 117.992C140.871 117.566 140.285 116.798 139.83 117.228Z" fill="white" fill-opacity="0.6"/>
<path d="M142.149 124.508C138.053 125.106 133.957 125.705 129.857 126.298C129.24 126.386 129.362 127.349 129.984 127.257C134.08 126.659 138.177 126.06 142.277 125.467C142.894 125.379 142.772 124.416 142.149 124.508Z" fill="white" fill-opacity="0.6"/>
<path d="M130.071 127.458C135.363 128.291 140.606 129.353 145.806 130.638C146.408 130.788 146.53 129.826 145.929 129.677C140.728 128.391 135.485 127.33 130.193 126.497C129.575 126.404 129.458 127.361 130.071 127.458Z" fill="white" fill-opacity="0.6"/>
<path d="M126.107 120.773C115.967 123.95 109.778 133.809 102.297 141.348C90.4244 153.299 72.2341 160.162 56.2678 154.793C43.5171 150.5 33.9441 138.865 30.5137 125.856C27.0833 112.847 29.3398 98.7469 35.0662 86.5715C37.5044 81.3929 40.5929 76.4505 44.7547 72.5279C54.2337 63.5967 68.3681 60.9669 81.2566 62.8591C84.1318 63.2777 87.0653 63.9458 89.4362 65.6247C91.8071 67.3035 93.4987 70.225 92.9759 73.0824C92.3767 76.3837 88.9931 78.6213 85.6544 78.9129C82.3157 79.2044 79.0382 77.9554 76.0109 76.5151C59.6579 68.7327 46.1974 53.49 43.8043 35.5378C41.4112 17.5856 52.1501 -2.169 69.5725 -7.12623" stroke="white" stroke-opacity="0.5" stroke-width="2.60067" stroke-miterlimit="10" stroke-linecap="round"/>
</svg>
