<svg width="32" height="33" viewBox="0 0 32 33" fill="none" xmlns="http://www.w3.org/2000/svg">
<g id="Social Media / Whatsapp">
<rect id="Logo Container" x="-0.000976562" y="0.408691" width="32" height="32" rx="16" fill="#00D95F"/>
<path id="Vector" d="M7.99902 23.816L9.14699 19.5476C8.22118 17.8848 7.92705 15.9445 8.31855 14.0827C8.71005 12.2209 9.76094 10.5625 11.2784 9.41184C12.7958 8.26115 14.678 7.69536 16.5795 7.81829C18.4811 7.94122 20.2744 8.74462 21.6306 10.0811C22.9867 11.4175 23.8145 13.1974 23.9623 15.094C24.11 16.9907 23.5677 18.8769 22.4348 20.4066C21.3019 21.9363 19.6545 23.0068 17.7948 23.4217C15.9352 23.8366 13.988 23.5681 12.3107 22.6654L7.99902 23.816ZM12.5186 21.0681L12.7852 21.2261C14.0002 21.945 15.4192 22.2425 16.8212 22.0722C18.2232 21.9019 19.5294 21.2734 20.5362 20.2846C21.5431 19.2959 22.194 18.0023 22.3876 16.6057C22.5812 15.209 22.3065 13.7876 21.6065 12.563C20.9064 11.3384 19.8203 10.3794 18.5173 9.83546C17.2143 9.2915 15.7676 9.19312 14.4028 9.55567C13.0379 9.91822 11.8316 10.7213 10.9716 11.8398C10.1117 12.9583 9.64656 14.3294 9.64866 15.7394C9.64751 16.9085 9.97138 18.055 10.5842 19.0513L10.7514 19.3265L10.1096 21.7089L12.5186 21.0681Z" fill="white"/>
<path id="Vector_2" fill-rule="evenodd" clip-rule="evenodd" d="M18.9903 16.8355C18.834 16.7096 18.651 16.621 18.4552 16.5765C18.2594 16.5319 18.056 16.5325 17.8605 16.5783C17.5667 16.7001 17.3769 17.1604 17.187 17.3905C17.147 17.4456 17.0882 17.4843 17.0216 17.4993C16.9551 17.5142 16.8853 17.5044 16.8255 17.4717C15.75 17.0511 14.8485 16.2799 14.2674 15.2833C14.2179 15.2212 14.1944 15.1422 14.202 15.0631C14.2096 14.984 14.2476 14.9109 14.3081 14.8592C14.5198 14.65 14.6753 14.3908 14.76 14.1057C14.7789 13.7912 14.7067 13.478 14.5522 13.2033C14.4327 12.8182 14.2053 12.4753 13.8968 12.2152C13.7377 12.1437 13.5613 12.1198 13.3889 12.1462C13.2165 12.1726 13.0554 12.2483 12.9251 12.364C12.6989 12.5589 12.5193 12.8019 12.3997 13.0752C12.28 13.3485 12.2233 13.6452 12.2336 13.9433C12.2343 14.1107 12.2556 14.2774 12.2969 14.4396C12.4018 14.8294 12.5632 15.2018 12.776 15.545C12.9295 15.808 13.0969 16.0625 13.2776 16.3076C13.865 17.1125 14.6033 17.796 15.4515 18.32C15.8772 18.5862 16.3322 18.8027 16.8074 18.9652C17.3011 19.1886 17.8461 19.2743 18.3847 19.2133C18.6916 19.167 18.9823 19.046 19.2314 18.8611C19.4804 18.6762 19.6801 18.4331 19.8129 18.153C19.8909 17.9838 19.9146 17.7947 19.8807 17.6116C19.7993 17.2371 19.2977 17.016 18.9903 16.8355Z" fill="white"/>
</g>
</svg>
